<svg width="96" height="96" viewBox="0 0 96 96" fill="none" xmlns="http://www.w3.org/2000/svg">
  <title>Honey Nails logo</title>
  <rect width="96" height="96" rx="24" fill="#2F2116"/>
  <path
    d="M48 14C40.3 27.1 29 37.2 29 53.3C29 68.1 37.9 78 48 78C58.1 78 67 68.1 67 53.3C67 37.2 55.7 27.1 48 14Z"
    fill="url(#honey-drop)"
  />
  <path
    d="M59.9 41.5C56.9 37.7 52.6 35.4 47.9 35.4C39.7 35.4 33.1 42.2 33.1 50.5C33.1 56.2 36.3 61.3 41.1 63.8C38.9 61.2 37.6 57.9 37.6 54.1C37.6 45.7 44.3 38.9 52.6 38.9C55.2 38.9 57.6 39.6 59.9 41.5Z"
    fill="#2F2116"
    fill-opacity="0.92"
  />
  <path
    d="M55.5 24.8C62.1 28.7 71.7 30 79 27.7C75.5 34.4 68.4 39.7 60.5 40.5C59.5 35.4 57.7 30.5 55.5 24.8Z"
    fill="#FFE3A0"
  />
  <circle cx="41" cy="29" r="4.6" fill="#FFE3A0" fill-opacity="0.86"/>
  <defs>
    <linearGradient id="honey-drop" x1="33.5" y1="17" x2="65.4" y2="76.8" gradientUnits="userSpaceOnUse">
      <stop stop-color="#FFE39A"/>
      <stop offset="0.45" stop-color="#F5B735"/>
      <stop offset="1" stop-color="#C77916"/>
    </linearGradient>
  </defs>
</svg>
